<svg width="207" height="40" viewBox="0 0 207 40" fill="none" xmlns="http://www.w3.org/2000/svg">
<path d="M138.133 17.1832C137.705 17.1832 137.302 17.1221 136.924 17C136.545 16.8657 136.191 16.6947 135.861 16.4871C135.531 16.2673 135.232 16.0169 134.964 15.736C134.695 15.4429 134.457 15.1376 134.249 14.8201V20.9019H133.883V7.49265H134.249V9.5077C134.445 9.19018 134.683 8.90319 134.964 8.64672C135.244 8.37805 135.544 8.14602 135.861 7.95062C136.191 7.75522 136.533 7.60867 136.887 7.51097C137.241 7.40106 137.601 7.34611 137.968 7.34611C138.64 7.34611 139.256 7.49265 139.818 7.78575C140.38 8.06664 140.862 8.43911 141.265 8.90319C141.668 9.36726 141.98 9.89239 142.199 10.4786C142.431 11.0648 142.547 11.6632 142.547 12.2738C142.547 12.9211 142.438 13.5439 142.218 14.1423C142.01 14.7285 141.711 15.2475 141.32 15.6994C140.942 16.1512 140.477 16.5115 139.928 16.7802C139.391 17.0488 138.792 17.1832 138.133 17.1832ZM138.133 16.8168C138.756 16.8168 139.311 16.6886 139.8 16.4321C140.3 16.1635 140.728 15.8154 141.082 15.388C141.436 14.9605 141.705 14.4781 141.888 13.9408C142.083 13.3912 142.181 12.8356 142.181 12.2738C142.181 11.6754 142.071 11.1014 141.851 10.5519C141.632 10.0023 141.332 9.51991 140.954 9.10469C140.575 8.67726 140.129 8.34142 139.617 8.09717C139.104 7.84071 138.554 7.71248 137.968 7.71248C137.601 7.71248 137.205 7.79186 136.777 7.95062C136.35 8.10938 135.953 8.3231 135.586 8.59177C135.22 8.86044 134.909 9.17186 134.652 9.52602C134.408 9.88018 134.274 10.2465 134.249 10.6251V14.0507C134.42 14.4415 134.64 14.8079 134.909 15.1498C135.177 15.4796 135.477 15.7665 135.806 16.0108C136.148 16.255 136.515 16.4504 136.905 16.597C137.296 16.7435 137.705 16.8168 138.133 16.8168ZM148.987 7.85903C148.083 7.89566 147.302 8.18876 146.642 8.73832C145.995 9.28788 145.543 10.0389 145.287 10.9915V17H144.92V7.49265H145.287V9.94734C145.617 9.27566 146.056 8.72611 146.606 8.29867C147.168 7.85903 147.76 7.60257 148.383 7.52929C148.505 7.51708 148.615 7.51097 148.712 7.51097C148.822 7.49876 148.914 7.49265 148.987 7.49265V7.85903ZM154.242 17.1832C153.62 17.1832 153.027 17.055 152.465 16.7985C151.916 16.5298 151.433 16.1696 151.018 15.7177C150.603 15.2536 150.273 14.7224 150.029 14.124C149.785 13.5134 149.663 12.8661 149.663 12.1822C149.663 11.5105 149.779 10.8816 150.011 10.2954C150.243 9.7092 150.56 9.19628 150.963 8.75664C151.379 8.31699 151.855 7.97504 152.392 7.7308C152.942 7.47434 153.528 7.34611 154.151 7.34611C154.786 7.34611 155.378 7.47434 155.928 7.7308C156.489 7.98726 156.972 8.33531 157.375 8.77496C157.79 9.2146 158.12 9.73363 158.364 10.332C158.608 10.9304 158.73 11.5716 158.73 12.2555V12.457H150.029C150.078 13.0676 150.218 13.6416 150.45 14.1789C150.695 14.7041 151.006 15.162 151.385 15.5528C151.763 15.9436 152.197 16.255 152.685 16.4871C153.186 16.7069 153.711 16.8168 154.261 16.8168C154.627 16.8168 154.981 16.768 155.323 16.6703C155.677 16.5726 156.007 16.4382 156.312 16.2673C156.618 16.0841 156.886 15.8704 157.118 15.6261C157.35 15.3819 157.534 15.1132 157.668 14.8201L158.016 14.9117C157.882 15.2414 157.686 15.5467 157.43 15.8276C157.186 16.0963 156.892 16.3344 156.55 16.542C156.221 16.7374 155.854 16.8901 155.451 17C155.061 17.1221 154.658 17.1832 154.242 17.1832ZM158.346 12.0906C158.309 11.4556 158.175 10.8694 157.943 10.332C157.711 9.79469 157.405 9.33673 157.027 8.95814C156.66 8.56734 156.233 8.26203 155.744 8.04221C155.256 7.82239 154.731 7.71248 154.169 7.71248C153.607 7.71248 153.082 7.82239 152.594 8.04221C152.105 8.26203 151.672 8.56734 151.293 8.95814C150.927 9.34894 150.634 9.81301 150.414 10.3504C150.194 10.8877 150.066 11.4678 150.029 12.0906H158.346ZM174.579 17H174.213V11.7059C174.213 10.3381 174.005 9.33062 173.59 8.68336C173.187 8.03611 172.546 7.71248 171.666 7.71248C171.215 7.71248 170.787 7.79796 170.384 7.96894C169.993 8.1277 169.633 8.35363 169.303 8.64672C168.986 8.93982 168.705 9.28788 168.461 9.69088C168.229 10.0939 168.052 10.5335 167.929 11.0098V17H167.563V11.7059C167.563 10.3259 167.362 9.31841 166.959 8.68336C166.556 8.03611 165.914 7.71248 165.035 7.71248C164.595 7.71248 164.174 7.79186 163.771 7.95062C163.38 8.10938 163.02 8.33531 162.69 8.62841C162.373 8.90929 162.092 9.25124 161.848 9.65425C161.603 10.0573 161.414 10.503 161.28 10.9915V17H160.913V7.49265H161.28V9.94734C161.695 9.1169 162.22 8.47575 162.855 8.02389C163.502 7.57204 164.205 7.34611 164.962 7.34611C165.768 7.34611 166.427 7.59646 166.94 8.09717C167.453 8.59788 167.758 9.26956 167.856 10.1122C168.809 8.26814 170.079 7.34611 171.666 7.34611C172.656 7.34611 173.388 7.70637 173.865 8.4269C174.341 9.13522 174.579 10.2282 174.579 11.7059V17ZM177.55 17V7.49265H177.917V17H177.55ZM177.55 5.03796V3.62743H177.917V5.03796H177.55ZM183.952 17.1832C181.913 17.1832 180.893 15.7299 180.893 12.8234V7.49265H181.26V12.8234C181.26 15.4857 182.157 16.8168 183.952 16.8168C184.404 16.8168 184.85 16.7374 185.29 16.5787C185.729 16.4077 186.132 16.1818 186.499 15.9009C186.865 15.6078 187.183 15.2597 187.451 14.8567C187.732 14.4537 187.946 14.0141 188.092 13.5378V7.49265H188.459V16.2673C188.459 16.5115 188.556 16.6336 188.752 16.6336V17C188.617 17 188.532 16.9878 188.495 16.9634C188.373 16.9145 188.276 16.829 188.202 16.7069C188.129 16.5726 188.092 16.426 188.092 16.2673V14.5819C187.677 15.388 187.097 16.023 186.352 16.4871C185.607 16.9512 184.807 17.1832 183.952 17.1832ZM205.223 17H204.857V11.7059C204.857 10.3381 204.649 9.33062 204.234 8.68336C203.831 8.03611 203.19 7.71248 202.311 7.71248C201.859 7.71248 201.431 7.79796 201.028 7.96894C200.638 8.1277 200.277 8.35363 199.948 8.64672C199.63 8.93982 199.349 9.28788 199.105 9.69088C198.873 10.0939 198.696 10.5335 198.574 11.0098V17H198.207V11.7059C198.207 10.3259 198.006 9.31841 197.603 8.68336C197.2 8.03611 196.559 7.71248 195.679 7.71248C195.24 7.71248 194.818 7.79186 194.415 7.95062C194.025 8.10938 193.664 8.33531 193.335 8.62841C193.017 8.90929 192.736 9.25124 192.492 9.65425C192.248 10.0573 192.058 10.503 191.924 10.9915V17H191.558V7.49265H191.924V9.94734C192.339 9.1169 192.864 8.47575 193.499 8.02389C194.147 7.57204 194.849 7.34611 195.606 7.34611C196.412 7.34611 197.072 7.59646 197.585 8.09717C198.097 8.59788 198.403 9.26956 198.5 10.1122C199.453 8.26814 200.723 7.34611 202.311 7.34611C203.3 7.34611 204.033 7.70637 204.509 8.4269C204.985 9.13522 205.223 10.2282 205.223 11.7059V17Z" fill="#D1F228"/>
<path d="M75.6078 12.5321H81.065L73.7631 32.2906H68.1127L60.8108 12.5321H66.268L70.918 26.364L75.6078 12.5321Z" fill="white"/>
<path d="M34.5765 32.2906H40.0337L32.7319 12.5321H27.0814L19.7795 32.2906H25.2367L29.8867 18.4588L34.5765 32.2906Z" fill="white"/>
<path d="M42.0602 32.2907V17.4331H38.7177V12.5322H42.0602V8.54012L47.0172 7V12.5322H51.3602V17.4331H47.0172V32.2907H42.0602Z" fill="white"/>
<path d="M93.6791 32.2907V17.4331H90.3366V12.5322H93.6791V8.54012L98.6361 7V12.5322H102.979V17.4331H98.6361V32.2907H93.6791Z" fill="white"/>
<path d="M58.8468 12.5321V32.2906H53.8899V12.5321H58.8468Z" fill="white"/>
<path d="M87.986 32.2906V12.5321H83.0291V32.2906H87.986Z" fill="white"/>
<path d="M17.9491 32.2906V16.0916C16.5961 14.7006 15.8373 13.9203 14.4843 12.5321H7.37859L4.96548 15.0133V12.5321H0V32.2906H4.95696V17.6318H12.9893V32.2906H17.9491Z" fill="white"/>
<path d="M117.402 14.9364L113.908 25.8116L108.911 12.5351H103.491L111.369 31.6594C110.909 33.0037 109.209 37.9338 109.209 37.9338L113.484 40L121 19.3443C119.282 18.4517 117.966 16.8617 117.402 14.9364Z" fill="white"/>
<path fill-rule="evenodd" clip-rule="evenodd" d="M124.5 18C127.538 18 130 15.5376 130 12.5C130 9.46243 127.538 7 124.5 7C121.462 7 119 9.46243 119 12.5C119 15.5376 121.462 18 124.5 18ZM125 10H124.211L123 10.4643L123.224 11.3071L124.092 11.0429V15H125V10Z" fill="#D1F228"/>
</svg>
